<?xml version="1.0" encoding="utf-8"?>
<!-- Generator: Adobe Illustrator 25.2.1, SVG Export Plug-In . SVG Version: 6.00 Build 0)  -->
<svg version="1.1" id="Layer_1" xmlns="http://www.w3.org/2000/svg" xmlns:xlink="http://www.w3.org/1999/xlink" x="0px" y="0px"
	 viewBox="0 0 279.05 39.16" style="enable-background:new 0 0 279.05 39.16;" xml:space="preserve">
<g>
	<path d="M226.92,2.95c0,1.63-1.32,2.96-2.95,2.96c-1.63,0-2.95-1.32-2.95-2.96c0-1.63,1.32-2.95,2.95-2.95
		C225.6,0,226.92,1.32,226.92,2.95"/>
	<g>
		<path d="M25.86,7.15v-4.2c0-1.63-1.32-2.95-2.95-2.95c-1.63,0-2.95,1.32-2.95,2.95v4.2C13.42,8.36,8.25,13.53,7.04,20.07H2.95
			C1.32,20.07,0,21.39,0,23.02c0,1.63,1.32,2.95,2.95,2.95h4.09c1.39,7.5,7.98,13.19,15.87,13.19c8.9,0,16.14-7.24,16.14-16.14
			C39.05,15.13,33.36,8.54,25.86,7.15 M22.91,33.26c-5.65,0-10.24-4.59-10.24-10.24c0-5.65,4.59-10.24,10.24-10.24
			c5.65,0,10.24,4.59,10.24,10.24C33.15,28.67,28.56,33.26,22.91,33.26"/>
		<path d="M16.55,23.04c0,3.49,2.84,6.33,6.33,6.33c3.49,0,6.33-2.84,6.33-6.33c0-3.49-2.84-6.33-6.33-6.33
			C19.39,16.7,16.55,19.54,16.55,23.04 M20.98,23.04c0-1.05,0.85-1.9,1.9-1.9c1.05,0,1.9,0.85,1.9,1.9c0,1.05-0.85,1.9-1.9,1.9
			C21.83,24.94,20.98,24.09,20.98,23.04"/>
		<path d="M10.59,8.14c0,1.63-1.32,2.96-2.95,2.96C6,11.1,4.68,9.77,4.68,8.14c0-1.63,1.32-2.95,2.95-2.95
			C9.27,5.19,10.59,6.51,10.59,8.14"/>
	</g>
	<path d="M86.12,9.8v4.84h-5.3v13.04c0,1.22,0.2,2.04,0.61,2.45s1.22,0.61,2.45,0.61c0.41,0,0.8-0.02,1.17-0.05
		c0.37-0.03,0.73-0.08,1.07-0.15v5.6c-0.61,0.1-1.29,0.17-2.04,0.2c-0.75,0.03-1.48,0.05-2.19,0.05c-1.12,0-2.18-0.08-3.18-0.23
		c-1-0.15-1.89-0.45-2.65-0.89c-0.76-0.44-1.37-1.07-1.81-1.89c-0.44-0.82-0.66-1.89-0.66-3.21V14.64h-4.38V9.8h4.38v-7.9h7.24v7.9
		H86.12z"/>
	<path d="M95.14,29.83c1.09,1.05,2.65,1.58,4.69,1.58c1.46,0,2.72-0.36,3.77-1.1c1.05-0.73,1.7-1.5,1.94-2.32h6.37
		c-1.02,3.16-2.58,5.42-4.69,6.78c-2.11,1.36-4.65,2.04-7.64,2.04c-2.07,0-3.94-0.33-5.6-0.99c-1.66-0.66-3.07-1.6-4.23-2.83
		c-1.16-1.22-2.05-2.68-2.68-4.38c-0.63-1.7-0.94-3.57-0.94-5.6c0-1.97,0.32-3.8,0.97-5.5c0.64-1.7,1.56-3.17,2.75-4.41
		c1.19-1.24,2.61-2.22,4.25-2.93c1.65-0.71,3.47-1.07,5.48-1.07c2.24,0,4.19,0.43,5.86,1.3c1.66,0.87,3.03,2.03,4.1,3.49
		c1.07,1.46,1.84,3.13,2.32,4.99c0.48,1.87,0.64,3.82,0.51,5.86H93.36C93.46,27.08,94.05,28.78,95.14,29.83z M103.32,15.97
		c-0.87-0.95-2.18-1.43-3.95-1.43c-1.16,0-2.11,0.2-2.88,0.59c-0.76,0.39-1.38,0.87-1.83,1.45c-0.46,0.58-0.78,1.19-0.97,1.83
		c-0.19,0.65-0.3,1.22-0.33,1.73h11.77C104.79,18.31,104.18,16.92,103.32,15.97z"/>
	<path d="M123.17,29.83c1.09,1.05,2.65,1.58,4.69,1.58c1.46,0,2.72-0.36,3.77-1.1c1.05-0.73,1.7-1.5,1.94-2.32h6.37
		c-1.02,3.16-2.58,5.42-4.69,6.78c-2.11,1.36-4.65,2.04-7.64,2.04c-2.07,0-3.94-0.33-5.6-0.99c-1.66-0.66-3.07-1.6-4.23-2.83
		c-1.16-1.22-2.05-2.68-2.68-4.38c-0.63-1.7-0.94-3.57-0.94-5.6c0-1.97,0.32-3.8,0.97-5.5c0.64-1.7,1.56-3.17,2.75-4.41
		c1.19-1.24,2.61-2.22,4.25-2.93c1.65-0.71,3.47-1.07,5.48-1.07c2.24,0,4.19,0.43,5.86,1.3c1.66,0.87,3.03,2.03,4.1,3.49
		c1.07,1.46,1.84,3.13,2.32,4.99c0.48,1.87,0.64,3.82,0.51,5.86h-19.01C121.48,27.08,122.08,28.78,123.17,29.83z M131.34,15.97
		c-0.87-0.95-2.18-1.43-3.95-1.43c-1.16,0-2.11,0.2-2.88,0.59c-0.76,0.39-1.38,0.87-1.83,1.45c-0.46,0.58-0.78,1.19-0.97,1.83
		c-0.19,0.65-0.3,1.22-0.33,1.73h11.77C132.81,18.31,132.21,16.92,131.34,15.97z"/>
	<path d="M149.44,1.77v34.38h-7.24V1.77H149.44z"/>
	<g>
		<path d="M192.83,31.18c-1.04,0.73-2.4,1.1-4.1,1.1c-1.22,0-2.28-0.21-3.16-0.64c-0.88-0.42-1.61-0.99-2.19-1.71
			c-0.58-0.71-1.01-1.55-1.3-2.5c-0.29-0.95-0.43-1.94-0.43-2.96H201c0.24-1.97,0.11-3.88-0.38-5.73c-0.49-1.85-1.28-3.49-2.37-4.92
			c-1.09-1.43-2.45-2.57-4.1-3.44c-1.65-0.87-3.51-1.3-5.58-1.3c-1.97,0-3.74,0.37-5.3,1.12c-1.56,0.75-2.9,1.76-4,3.03
			c-1.1,1.27-1.95,2.75-2.55,4.43c-0.59,1.68-0.89,3.46-0.89,5.32c0,2.04,0.28,3.91,0.84,5.6c0.56,1.7,1.39,3.16,2.5,4.38
			c1.1,1.22,2.45,2.17,4.05,2.85c1.6,0.68,3.43,1.02,5.5,1.02c1.43,0,2.79-0.2,4.1-0.59c1.31-0.39,2.49-0.97,3.54-1.73
			c1.05-0.76,1.95-1.71,2.7-2.83c0.73-1.1,1.25-2.35,1.56-3.74h-5.51C194.6,29.39,193.84,30.46,192.83,31.18z M182.23,17.91
			c0.36-0.85,0.83-1.59,1.43-2.22c0.59-0.63,1.31-1.12,2.14-1.48c0.83-0.36,1.76-0.54,2.78-0.54c0.98,0,1.88,0.2,2.67,0.59
			c0.8,0.39,1.48,0.9,2.04,1.53c0.56,0.63,1,1.37,1.32,2.22c0.32,0.85,0.52,1.73,0.59,2.65h-13.55
			C181.68,19.67,181.87,18.76,182.23,17.91z"/>
	</g>
	<path d="M221.06,9.8h5.81v26.34h-5.81V9.8z"/>
	<g>
		<path d="M25.86,7.15v-4.2c0-1.63-1.32-2.95-2.95-2.95c-1.63,0-2.95,1.32-2.95,2.95v4.2C13.42,8.36,8.25,13.53,7.04,20.07H2.95
			C1.32,20.07,0,21.39,0,23.02c0,1.63,1.32,2.95,2.95,2.95h4.09c1.39,7.5,7.98,13.19,15.87,13.19c8.9,0,16.14-7.24,16.14-16.14
			C39.05,15.13,33.36,8.54,25.86,7.15 M22.91,33.26c-5.65,0-10.24-4.59-10.24-10.24c0-5.65,4.59-10.24,10.24-10.24
			c5.65,0,10.24,4.59,10.24,10.24C33.15,28.67,28.56,33.26,22.91,33.26"/>
		<path d="M16.55,23.04c0,3.49,2.84,6.33,6.33,6.33c3.49,0,6.33-2.84,6.33-6.33c0-3.49-2.84-6.33-6.33-6.33
			C19.39,16.7,16.55,19.54,16.55,23.04 M20.98,23.04c0-1.05,0.85-1.9,1.9-1.9c1.05,0,1.9,0.85,1.9,1.9c0,1.05-0.85,1.9-1.9,1.9
			C21.83,24.94,20.98,24.09,20.98,23.04"/>
		<path d="M10.59,8.14c0,1.63-1.32,2.96-2.95,2.96C6,11.1,4.68,9.77,4.68,8.14c0-1.63,1.32-2.95,2.95-2.95
			C9.27,5.19,10.59,6.51,10.59,8.14"/>
	</g>
	<g>
		<path d="M173.91,25.04c-0.49-0.88-1.14-1.61-1.94-2.19c-0.8-0.58-1.71-1.04-2.73-1.38c-1.02-0.34-2.06-0.63-3.11-0.87
			c-1.09-0.24-2.14-0.46-3.16-0.66c-1.02-0.2-1.93-0.45-2.73-0.74c-0.8-0.29-1.44-0.65-1.94-1.1c-0.49-0.44-0.74-1.02-0.74-1.73
			c0-0.58,0.17-1.04,0.51-1.4c0.34-0.36,0.76-0.63,1.25-0.82c0.49-0.19,1.02-0.31,1.58-0.38c0.56-0.07,1.04-0.1,1.45-0.1
			c1.29,0,2.44,0.24,3.44,0.71c1,0.48,1.64,1.41,1.91,2.8h6.06c-0.17-1.46-0.59-2.71-1.25-3.75c-0.66-1.04-1.5-1.88-2.5-2.52
			c-1-0.64-2.12-1.11-3.36-1.4c-1.24-0.29-2.54-0.43-3.9-0.43c-1.19,0-2.44,0.12-3.74,0.36c-1.31,0.24-2.5,0.65-3.57,1.25
			c-1.07,0.59-1.95,1.38-2.65,2.34c-0.7,0.97-1.04,2.17-1.04,3.59c0,1.32,0.24,2.44,0.71,3.34c0.48,0.9,1.11,1.64,1.91,2.22
			c0.8,0.58,1.7,1.04,2.7,1.38c1,0.34,2.05,0.63,3.13,0.87c1.05,0.24,2.09,0.46,3.11,0.66c1.02,0.2,1.93,0.45,2.73,0.74
			c0.8,0.29,1.45,0.67,1.96,1.15c0.51,0.48,0.78,1.09,0.82,1.83c0.03,0.75-0.14,1.35-0.54,1.81c-0.39,0.46-0.89,0.81-1.5,1.04
			c-0.61,0.24-1.27,0.4-1.96,0.48c-0.7,0.09-1.32,0.13-1.86,0.13c-1.56,0-2.9-0.34-4.03-1.02c-1.06-0.64-1.69-1.74-1.9-3.28h-5.83
			c0.06,1.44,0.37,2.7,0.93,3.77c0.59,1.14,1.41,2.09,2.45,2.85c1.04,0.76,2.26,1.33,3.67,1.71c1.41,0.37,2.95,0.56,4.61,0.56
			c1.36,0,2.73-0.15,4.13-0.46c1.39-0.31,2.66-0.8,3.8-1.48c1.14-0.68,2.06-1.56,2.78-2.65c0.71-1.09,1.07-2.41,1.07-3.97
			C174.65,27.01,174.4,25.92,173.91,25.04z"/>
	</g>
	<g>
		<path d="M253.93,18.75c-0.49-1.85-1.28-3.49-2.37-4.92c-1.09-1.43-2.45-2.57-4.1-3.44c-1.65-0.87-3.51-1.3-5.58-1.3
			c-1.97,0-3.74,0.37-5.3,1.12c-1.56,0.75-2.9,1.76-4,3.03c-1.1,1.27-1.95,2.75-2.55,4.43c-0.59,1.68-0.89,3.46-0.89,5.32
			c0,2.04,0.28,3.91,0.84,5.6c0.56,1.7,1.39,3.16,2.5,4.38c1.1,1.22,2.45,2.17,4.05,2.85c1.6,0.68,3.43,1.02,5.5,1.02
			c1.43,0,2.79-0.2,4.1-0.59c1.31-0.39,2.49-0.97,3.54-1.73c1.05-0.76,1.95-1.71,2.7-2.83c0.73-1.1,1.25-2.35,1.56-3.74h-5.51
			c-0.51,1.42-1.27,2.49-2.29,3.21c-1.04,0.73-2.4,1.1-4.1,1.1c-1.22,0-2.28-0.21-3.16-0.64c-0.88-0.42-1.61-0.99-2.19-1.71
			c-0.58-0.71-1.01-1.55-1.3-2.5c-0.29-0.95-0.43-1.94-0.43-2.96h19.36C254.55,22.51,254.42,20.6,253.93,18.75z M234.95,20.66
			c0.03-0.98,0.23-1.9,0.59-2.75c0.36-0.85,0.83-1.59,1.43-2.22c0.59-0.63,1.31-1.12,2.14-1.48c0.83-0.36,1.76-0.54,2.78-0.54
			c0.98,0,1.88,0.2,2.67,0.59c0.8,0.39,1.48,0.9,2.04,1.53c0.56,0.63,1,1.37,1.32,2.22c0.32,0.85,0.52,1.73,0.59,2.65H234.95z"/>
	</g>
	<g>
		<path d="M278.31,25.04c-0.49-0.88-1.14-1.61-1.94-2.19c-0.8-0.58-1.71-1.04-2.73-1.38c-1.02-0.34-2.06-0.63-3.11-0.87
			c-1.09-0.24-2.14-0.46-3.16-0.66c-1.02-0.2-1.93-0.45-2.73-0.74c-0.8-0.29-1.44-0.65-1.94-1.1c-0.49-0.44-0.74-1.02-0.74-1.73
			c0-0.58,0.17-1.04,0.51-1.4c0.34-0.36,0.76-0.63,1.25-0.82c0.49-0.19,1.02-0.31,1.58-0.38c0.56-0.07,1.04-0.1,1.45-0.1
			c1.29,0,2.44,0.24,3.44,0.71c1,0.48,1.64,1.41,1.91,2.8h6.06c-0.17-1.46-0.59-2.71-1.25-3.75c-0.66-1.04-1.5-1.88-2.5-2.52
			c-1-0.64-2.12-1.11-3.36-1.4c-1.24-0.29-2.54-0.43-3.9-0.43c-1.19,0-2.44,0.12-3.74,0.36c-1.31,0.24-2.5,0.65-3.57,1.25
			c-1.07,0.59-1.95,1.38-2.65,2.34c-0.7,0.97-1.04,2.17-1.04,3.59c0,1.32,0.24,2.44,0.71,3.34c0.48,0.9,1.11,1.64,1.91,2.22
			c0.8,0.58,1.7,1.04,2.7,1.38c1,0.34,2.05,0.63,3.13,0.87c1.05,0.24,2.09,0.46,3.11,0.66c1.02,0.2,1.93,0.45,2.73,0.74
			c0.8,0.29,1.45,0.67,1.96,1.15c0.51,0.48,0.78,1.09,0.82,1.83c0.03,0.75-0.14,1.35-0.54,1.81c-0.39,0.46-0.89,0.81-1.5,1.04
			c-0.61,0.24-1.27,0.4-1.96,0.48c-0.7,0.09-1.32,0.13-1.86,0.13c-1.56,0-2.9-0.34-4.03-1.02c-1.06-0.64-1.69-1.74-1.9-3.28h-5.83
			c0.06,1.44,0.37,2.7,0.93,3.77c0.59,1.14,1.41,2.09,2.45,2.85c1.04,0.76,2.26,1.33,3.67,1.71c1.41,0.37,2.95,0.56,4.61,0.56
			c1.36,0,2.73-0.15,4.13-0.46c1.39-0.31,2.66-0.8,3.8-1.48c1.14-0.68,2.06-1.56,2.78-2.65c0.71-1.09,1.07-2.41,1.07-3.97
			C279.05,27.01,278.8,25.92,278.31,25.04z"/>
	</g>
	<g>
		<path d="M67.26,13.45c-0.7-1.07-1.57-1.93-2.62-2.57c-1.05-0.64-2.25-1.1-3.59-1.38c-1.34-0.27-2.73-0.41-4.15-0.41
			c-1.43,0-2.82,0.13-4.18,0.38c-1.36,0.25-2.58,0.7-3.67,1.32c-1.09,0.63-1.96,1.49-2.62,2.57c-0.66,1.09-0.99,2.48-0.99,4.18
			c0,1.16,0.24,2.13,0.71,2.93c0.48,0.8,1.1,1.46,1.89,1.99c0.78,0.53,1.67,0.95,2.68,1.27c1,0.32,2.03,0.6,3.08,0.84
			c2.58,0.54,4.59,1.09,6.04,1.63c1.44,0.54,2.17,1.36,2.17,2.45c0,0.65-0.15,1.18-0.46,1.61c-0.31,0.43-0.69,0.76-1.15,1.02
			c-0.46,0.25-0.97,0.44-1.53,0.56c-0.56,0.12-1.1,0.18-1.61,0.18c-0.71,0-1.4-0.08-2.06-0.25c-0.66-0.17-1.25-0.43-1.76-0.79
			c-0.51-0.36-0.93-0.82-1.25-1.38c-0.27-0.47-0.42-1.01-0.47-1.63h-6.87c0.11,1.6,0.5,2.94,1.17,4.02c0.73,1.17,1.66,2.11,2.8,2.83
			c1.14,0.71,2.44,1.22,3.9,1.53c1.46,0.31,2.96,0.46,4.48,0.46c1.49,0,2.96-0.14,4.41-0.43c1.44-0.29,2.73-0.79,3.85-1.5
			c1.12-0.71,2.03-1.66,2.73-2.83c0.7-1.17,1.04-2.62,1.04-4.36c0-1.22-0.24-2.25-0.71-3.08c-0.48-0.83-1.1-1.53-1.89-2.09
			c-0.78-0.56-1.67-1.01-2.68-1.35c-1-0.34-2.03-0.63-3.08-0.87c-1.02-0.24-2.02-0.46-3.01-0.66c-0.99-0.2-1.86-0.43-2.62-0.69
			c-0.76-0.25-1.38-0.59-1.86-0.99c-0.48-0.41-0.71-0.93-0.71-1.58c0-0.54,0.14-0.98,0.41-1.3c0.27-0.32,0.6-0.57,0.99-0.74
			c0.39-0.17,0.82-0.28,1.3-0.33c0.48-0.05,0.92-0.08,1.32-0.08c1.29,0,2.41,0.25,3.36,0.74c0.89,0.46,1.41,1.32,1.55,2.56h6.88
			C68.33,15.72,67.92,14.46,67.26,13.45z"/>
	</g>
	<path d="M218.31,9.76c-2.56,0-6.33-0.19-9.76,3.18l-0.18,0V9.8h-5.45v15.57l-0.01,10.77h0.01v0h2.62l3.16,0l0.01-15.09
		c0-4.74,4.25-6.1,9.59-6.1L218.31,9.76z"/>
</g>
</svg>
