<?xml version="1.0" encoding="utf-8"?>
<!-- Generator: Adobe Illustrator 27.7.0, SVG Export Plug-In . SVG Version: 6.00 Build 0)  -->
<svg version="1.1" id="Capa_1" xmlns="http://www.w3.org/2000/svg" xmlns:xlink="http://www.w3.org/1999/xlink" x="0px" y="0px"
	 viewBox="0 0 8192 1744.3" style="enable-background:new 0 0 8192 1744.3;" xml:space="preserve">
<g>
	<path d="M4108.3,1115.7c0-204.3,0-407.8,0-614c151.9,10.9,300.9,21.4,452.2,32.4l0.1,587.7c0,15.1,0.8,30.3,3.3,45.1
		c11.3,68.6,69.2,117.3,139.2,117.5c251,0.1,502,0.1,753,0c83.1,0,136.5-46.6,148.9-129.1c1.9-13.4,3-27.1,3-40.8l0.1-509.4
		l447.7,27.3c0,0,2.8,397.7,3,591.3c0,40.1-0.1,80.8-5.3,120.5c-16,125.5-77.5,224.1-182.6,294.5c-75.9,50.9-160.3,80.1-250.8,91.6
		c-10,1.2-20.1,1.1-30.2,1.1c-328.7,0-657.4-1.8-986.1,0.7c-206.1,1.5-420.7-126.7-483.9-373.2c-6.4-24.8-10.2-50.2-15.5-76.5
		c-2.6,16.7-4.7,32.9-7.9,48.8c-40.7,203.4-199.1,361.3-403.4,399.1c-7.1,1.2-20.2,1.5-20.2,1.5H1557.8c0-385.7,0-774.6,0-1161.9
		l443.1,31.8l-0.6,676.1h1615.1c48-8,79.1-48.8,75.1-97.4c-4.2-51.6-32.2-80.4-85.5-85.4c-71.5-6.6-1066.8-88.8-1141.3-95.6
		c-14.9-1.4-29.7-4.4-44.4-8c-45.5-11.2-89.2-27.4-131.1-48.6c-124-62.4-199.8-163.1-235.2-295.9c-3.3-12.5-5.8-25-9.4-40.1
		l1662.2,134.5c89.4,9.8,165.5,51.3,230.8,112.2c73.9,68.9,127.1,151.8,161.6,246.5c1.7,4.7,3.5,9.4,5.3,14.1
		C4103.7,1114.7,4104.8,1114.7,4108.3,1115.7z"/>
	<path d="M6059.7,1731.5l4.3-456.5l1567.1,0.1c22.5,0,44.4-2.2,65.7-9.7c35.7-12.5,54.9-37.4,56.4-75.3c1.9-47.5-19-83.6-71.2-91.9
		c-23.4-3.7-47-5.4-70.7-7.3c121.2,10.1-1029.3-85.5-1048.9-87.2c-83.1-5.4-162.3-23.5-234.9-64.3
		c-117.2-67.5-190.8-172-235.9-306.6L7750.9,737c261.7,21.3,417.2,300.6,415.2,425.4c10.8,138.6-20.2,265.6-103.8,378.1
		c-77.2,103.9-181.4,163.7-308.5,183.6c-31.8,5-64.3,6.9-96.6,7.1C7135.2,1731.6,6059.7,1731.5,6059.7,1731.5z"/>
	<path d="M4024,11.3c0,152.9,0,303,0,453.1c-0.7,0.6-1.1,1.1-1.7,1.5c-0.6,0.4-1,1.2-1.7,1.4c-2.8,0.4-5.7,1-8.6,1
		c-1063.7,0-2132.4,0-3198.3,0l0,0c0,0,146-231.3,213.9-339.8c6.5-10.4,13.8-20.2,21-30c41.4-55.8,97.1-87.3,167.3-87
		c167.5,0.6,805,0,805,0v399.9c1.2,0.3,2.5,0.6,3.9,0.7c1.9-5,4-9.8,5.8-14.8c5.9-17,11.9-33.9,17.6-50.9
		c36.4-108,107.9-188.7,199.1-253.4c62.8-44.7,134.1-68.3,210.3-77.2c26.3-3,53-4.2,79.5-4.3C3022.7,11.2,4024,11.3,4024,11.3z"/>
	<path d="M8168.3,11.3l2.4,455.7c0,0-1408.7,0-2111.5,0c1.2-17,17.4-97.3,66.8-190.6c86-151.9,184.5-227.7,347.4-256.6
		c31.7-5.7,64.3-8.2,96.4-8.2C7094,11.2,8168.3,11.3,8168.3,11.3z"/>
	<polygon points="1302,550.4 547.2,1731.9 10.4,1731.9 795.7,495.1 	"/>
	<path d="M4104.8,13.5c152.3,0,304.5,0,454.3,0V467c-150.4,0-302.4,0-454.3,0C4104.8,315.9,4104.8,165.8,4104.8,13.5z"/>
	<path d="M5602.2,14.1h453.5v452.7h-453.5C5602.2,466.7,5602.2,165.8,5602.2,14.1z"/>
</g>
</svg>
