<?xml version="1.0" encoding="utf-8"?>
<!-- Generator: Adobe Illustrator 27.7.0, SVG Export Plug-In . SVG Version: 6.00 Build 0)  -->
<svg version="1.1" id="Capa_1" xmlns="http://www.w3.org/2000/svg" xmlns:xlink="http://www.w3.org/1999/xlink" x="0px" y="0px"
	 viewBox="0 0 8192 1995" style="enable-background:new 0 0 8192 1995;" xml:space="preserve">
<g>
	<path d="M7688.6,1115.2c-0.2,79.3-0.3,158.7-0.5,238c0,6.5-0.5,13-0.7,19.5c-43.6,0.2-87.1,0.4-130.7,0.6c0,0,0.3-0.9,0.3-0.9
		c-0.7-0.9-1.5-1.9-2.2-2.8c-0.2-5.4-0.7-10.8-0.7-16.3c0-237.3,0-474.7,0-712c0-5.4,0.5-10.8,0.8-16.2l1.3,0.3l1.3-0.4
		c79.5-0.1,159.1-0.2,238.6-0.3c36-0.1,71.9-0.3,107.9-0.4c8.7,0,17.3,0,26,0c59.4,6.5,115.7,21.9,162.3,61.6
		c44.2,37.7,68.4,86,73.1,144c0.6,1.4,1.2,2.8,1.8,4.2c-0.1,18.4-0.2,36.8-0.3,55.2c-0.5,1.4-1,2.7-1.6,4.1
		c-3,44.2-19.5,83.1-47.6,116.9c-28.8,34.6-65.8,57.5-108.1,72.2c-5.6,2-11.2,4-18.4,6.6c14.5,20.5,28.4,40.1,42.4,59.8
		c49.7,69.8,99.4,139.6,149.1,209.4c2.8,3.9,5.5,7.8,8.3,11.6c0,1.1,0,2.2,0,3.3c-14.7,0-29.4,0.1-44,0c-37.5-0.2-75-0.5-112.5-0.8
		c-29.2-41.8-58.3-83.6-87.5-125.3c-29.9-42.6-59.9-85.1-89.9-127.7c-1.2-1.7-2.9-3.2-4.3-4.8c-2.4-1-4.7-2.8-7.1-2.8
		c-51.6,0-103.3,0.3-154.9,0.5C7690,1113.3,7689.3,1114.3,7688.6,1115.2z M7688.7,990.3c4.2,1.2,8.4,3.5,12.6,3.5
		c64.2,0.2,128.4,0.2,192.6,0c4.6,0,9.2-1.7,13.7-2.7c12.7-2.4,25.8-3.5,38-7.5c42.2-13.9,72.8-40.1,83.7-84.9c5.2-21.2,5-43,0-64.1
		c-8.6-36.1-30.5-62.2-65.2-75.3c-18.2-6.9-38-9.7-57-14.3c-2.4-0.9-4.8-2.6-7.2-2.6c-67.9-0.1-135.7-0.2-203.6,0
		c-2.6,0-5.2,2.4-7.9,3.6c-0.1,40.2-0.4,80.3-0.3,120.5C7688.2,907.9,7688.5,949.1,7688.7,990.3z"/>
	<path d="M694.9,1160.6c0.4-22.8,0.7-45.6,1.1-68.4c-0.2-1.2-0.4-2.3-0.6-3.5c-0.4-10.8-0.8-21.6-1.3-32.4c-0.6-1.4-1.2-2.8-1.7-4.2
		c-0.5-45.6-7.4-90.6-15.1-135.4c-9.5-54.5-22.2-108.3-40.5-160.6c-12.9-36.8-26.6-73.2-39.5-108.7c10.5,2.9,390,253.5,457.6,303.1
		c2.3,39.3,4.6,80.3,7,121.3c0.6,1.4,1.2,2.8,1.8,4.2c-0.1,43.5-0.2,86.9-0.3,130.4c-0.5,1.4-1,2.7-1.6,4.1
		c-0.5,16.1-1.1,32.1-1.6,48.2c-0.5,1.4-1.1,2.8-1.6,4.1c-0.2,5.2-0.5,10.4-0.7,15.6c-0.2,1.2-0.4,2.4-0.6,3.6
		c-0.1,4.2-0.2,8.4-0.4,12.6c-0.5,1.4-1.1,2.8-1.6,4.1c-4,31.1-6.7,62.4-12.4,93.1c-7.7,41.4-17.8,82.4-26.8,123.5
		c-0.4,2-0.5,4.2,1.5,7.2c5.9-11.6,12.2-23.1,17.7-34.9c35.4-75.8,63.7-154,82.9-235.5c12-51.1,21.6-102.5,25.5-154.9
		c1.3-16.7,2.1-33.5,3.2-50.2c0.5-1.4,1-2.7,1.6-4.1c0.1-15.1,0.3-30.3,0.4-45.4c0.2-1.2,0.4-2.3,0.6-3.5
		c-0.1-23.7-0.1-47.5-0.2-71.2c-0.5-1.4-1.1-2.8-1.6-4.1c-5.4-111-27.2-218.9-63.2-323.9c-22.4-65.4-51-127.9-84.5-188.3
		c-1.5-2.7-2.8-5.5-2.2-10.1c20.4,14.5,41.2,28.5,61.2,43.5c113.1,85.3,227.2,169.3,338.6,256.8c89.9,70.6,177.3,144.6,264.4,218.8
		c63.7,54.3,124.6,111.8,182.5,172.3c49.9,52.2,98,105.8,136.3,167.6c23.1,37.3,35.1,77.7,38.9,121c0.2,1.2,0.4,2.3,0.6,3.5
		c-0.3,19.5,0.4,39.2-1,58.6c-4.2,55.5-18.5,108.7-42.1,159.1c-13.5,28.9-29.9,56.4-45.3,84.4c-3,5.5-7.2,10.4-12.2,17.4
		c-10.8-35.8-31.2-62-58.1-83.2c-32.3-25.5-68.5-43.2-108.3-53.5c-6.7-1.7-13.1-5-19.8-6.2c-25.8-4.7-51.7-8.9-77.5-13.3
		c-6.2-1.1-12.4-2.3-18.6-3.5c-7-0.9-14-1.7-21-2.5c-8.2-0.3-16.4-0.6-24.6-1c-3-0.9-5.9-2.6-8.9-2.6c-29.3-0.2-58.6-0.2-88,0
		c-3,0-5.9,1.7-8.9,2.7c-10.4,0.3-20.7,0.6-31.1,1c-8.1,0.9-16.2,1.7-24.3,2.6c-5.1,0.2-10.1,0.3-15.2,0.5
		c-6.9,0.9-13.8,1.9-20.7,2.8c-26.7,0.6-52.9,4.9-79.1,9.7c-24.5,4.5-49.5,6.4-74.1,10.3c-19.9,3.2-39.6,7.6-59.3,11.6
		c-28.6,5.8-57.2,11.4-85.7,17.8c-22.1,5-44,11.4-66,16.8c-17.9,4.4-36.1,7.8-53.8,12.7c-27.4,7.5-54.7,15.5-81.8,23.9
		c-86.3,26.8-173.3,51.6-258.7,81.3c-117.3,40.7-233.7,84.1-349.7,128.4c-84.5,32.3-167.7,68.1-251.6,102.3c-3.4,1.4-7,2.5-13.8,4.8
		c4.1-5.6,6.2-8.8,8.7-11.7c62-71.2,114.4-148.9,155.5-234c42.4-87.9,72.4-179.9,85.7-276.9c2.7-19.8,4.4-39.8,6.5-59.7
		c0.5-1.4,1.1-2.7,1.6-4.1c0.2-6.5,0.5-13,0.7-19.5l1,0.3c0.4-0.4,1-0.7,1.1-1.1c0-0.9-0.3-1.8-0.4-2.7l-1.1,0.2
		c0.3-15.2,0.6-30.4,1-45.6c0.6-1.4,1.2-2.8,1.8-4.2c0-2.8,0.1-5.6,0.1-8.4c-0.5-1.4-1.1-2.7-1.6-4.1c-0.1-15.1-0.3-30.3-0.4-45.4
		c-0.2-1.2-0.4-2.3-0.6-3.5c-5.3-75.2-17.4-149.2-39.1-221.6c-12.5-41.6-27.2-82.2-45.5-121.6c-2.2-4.8-4-9.8-7.5-18.2
		c144.8,76.7,286.7,151.9,428.5,227.1c1.2,10.5,2.4,20.1,3.5,29.7c0.2,1.2,0.4,2.4,0.6,3.5c0.1,5.3,0.2,10.6,0.4,15.9
		c0.5,1.4,1.1,2.8,1.6,4.1c0.3,7.4,0.5,14.8,0.8,22.2c0.2,1.2,0.4,2.3,0.6,3.5c-0.1,9.5-0.2,19-0.3,28.5c0.6,1.4,1.2,2.8,1.8,4.2
		c-0.1,38-0.2,76-0.3,114c-0.5,1.4-1,2.7-1.6,4.1c0.1,9.5,0.2,19.1,0.3,28.6c-0.2,1.2-0.4,2.3-0.6,3.5c-0.4,6.4-0.9,12.9-1.3,19.3
		c-0.5,1.4-1.1,2.8-1.6,4.1c-3.6,35-6.1,70.1-11.1,104.9c-4.9,33.6-12.5,66.9-18.9,100.3c-4,9.4-4,9.4-2,19.6
		c2.3-6.5,4-11.2,5.6-15.9c26.2-60.8,48.5-123,65-187.2c14.1-55.1,24.5-110.9,30.1-167.5c1.6-16.7,2.2-33.5,3.3-50.3
		c0.5-1.4,1.1-2.7,1.6-4.1c0.1-9.7,0.3-19.3,0.4-29C694.5,1163,694.7,1161.8,694.9,1160.6z"/>
	<path d="M4833.4,1373.3c-24.8-34.7-49.7-69.4-74.4-104.3c-35.6-50.3-70.9-100.9-106.4-151.3c-0.9-1.3-2.4-2.1-3.6-3.2
		c-2.4-1-4.7-2.8-7.1-2.8c-51.6,0-103.3,0.3-154.9,0.5c-0.7,1-1.4,1.9-2.1,2.9c-0.2,79.3-0.3,158.6-0.5,238c0,6.5-0.5,13-0.7,19.5
		c-43.6,0.2-87.1,0.4-130.7,0.6c0,0,0.3-0.9,0.3-0.9c-0.7-0.9-1.5-1.9-2.2-2.8c-0.2-5.4-0.7-10.8-0.7-16.3c0-237.3,0-474.7,0-712
		c0-5.4,0.5-10.8,0.8-16.2l1.3,0.3l1.3-0.4c79.5-0.1,159.1-0.2,238.6-0.3c36-0.1,71.9-0.3,107.9-0.4c8.7,0,17.3,0,26,0
		c50.8,6,99.7,17.4,143,46.7c52.5,35.5,82.4,85.2,91.9,147.1c2.8,18,2.1,36.6,3,54.9c-0.2,1.2-0.4,2.4-0.6,3.6
		c-0.1,5.3-0.2,10.6-0.4,15.9c-0.5,1.4-1.1,2.8-1.6,4.1c-5.1,54.9-29,100.1-69.8,136.7c-29.6,26.5-64.6,43.2-103.8,55.8
		c13.5,19.2,26.3,37.5,39.3,55.7c51.3,71.9,102.6,143.7,153.8,215.7c2.7,3.8,4.1,8.4,6.1,12.6
		C4936,1373.1,4884.7,1373.2,4833.4,1373.3z M4829.2,879.4c0.1-7.5,0.2-15,0.3-22.4c-0.6-1.4-1.2-2.8-1.8-4.2
		c-1.9-36.1-18-64.1-48.3-83.8c-23.1-15.1-49.5-19.4-76-23.7c-2.4-0.9-4.8-2.6-7.2-2.6c-67.9-0.1-135.7-0.2-203.6,0
		c-2.6,0-5.2,2.4-7.9,3.6c-0.1,40.2-0.4,80.3-0.3,120.5c0,41.2,0.3,82.5,0.5,123.7c4.2,1.2,8.4,3.5,12.6,3.5
		c64.2,0.2,128.4,0.2,192.6,0c4.6,0,9.2-1.7,13.7-2.7c27.2-2,52.9-9.7,75.3-25.2c28.6-19.8,46.4-46.7,48.4-82.5
		C4828.2,882.1,4828.7,880.8,4829.2,879.4z"/>
	<path d="M3267.4,957.5c0.1-3,0.2-6,0.2-9c0.1-1,0.3-2,0.4-3c8.9-72.3,36.3-137,82.2-193.4c58.7-72.1,134.4-116.4,225.6-134.9
		c14.8-3,29.3-6.1,44.5-6c11.4-0.8,22.8-1.5,34.3-2.3c2.6,0,5.2,0,7.8,0c11.4,0.8,22.8,1.5,34.2,2.3
		c95.6,9.8,179.3,45.2,246.4,115.4c53.4,55.9,86.7,122.3,99.9,198.6c1.8,10.6,2.3,21.4,3.5,32.2c0.6,1.4,1.2,2.8,1.8,4.2
		c0.2,14.1,0.5,28.2,0.7,42.2c-0.2,1.2-0.4,2.4-0.6,3.6c-0.1,8.6-0.2,17.1-0.4,25.7c-0.5,1.4-1.1,2.8-1.6,4.1
		c-2.3,42.7-13.8,83.2-31.4,121.8c-38.1,83.6-98.8,145.8-180.9,186.7c-31.4,15.6-64.5,26.9-99.7,30.9c-14.6,1.6-29.1,4.6-43.7,6.9
		c-23.6,0-47.2,0-70.8,0c-84.3-5.3-158.7-35.9-222.8-90.4c-72.4-61.5-113.8-140.9-128.4-234.3c-5-32.1-6-64.7-2.7-97.2
		C3266.4,960.2,3266.9,958.9,3267.4,957.5z M3404.4,1020c-0.3,0.4-1.1,0.9-1,1.1c0.4,0.8,1,1.6,1.6,2.4c1,6.4,1.8,12.8,2.9,19.1
		c14,85.6,57.8,150.7,134.5,192.1c25,13.5,51.8,23.5,81,24.3c6.9,0.9,13.8,1.8,20.7,2.8c9.6,0,19.1,0,28.7,0
		c6.9-0.9,13.8-1.8,20.7-2.8c8.9-1.3,18-1.8,26.6-4.1c83.8-22.8,141.6-74.9,171.9-156.2c20.7-55.3,23.3-112.4,9.3-169.5
		c-27-110.2-109.5-185.4-223-196.1c-32.5-3.1-65.1-0.8-96.9,9.4c-83.3,26.8-136.4,83-164,165.1
		C3405.2,944.2,3403.7,981.9,3404.4,1020z"/>
	<path d="M6229.9,1193.7c-25.3,59.6-50.5,119.1-75.8,178.7c-45.5,0.1-90.9,0.1-136.4,0.2c30.9-71.1,61.7-142.2,92.7-213.3
		c53.6-122.8,107.2-245.5,161-368.2c25.2-57.6,50.6-115.1,75.9-172.6c41.3,0.1,82.5,0.2,123.8,0.3c61.3,140.6,122.6,281.2,184,421.7
		c46.7,106.8,93.5,213.5,140.2,320.3c1.7,3.8,2.1,8.2,3.1,12.3c-45.8,0.1-91.6,0.2-137.4,0.2c-18.5-43.3-37-86.6-55.6-129.9
		c-7.3-16.8-14.9-33.5-22.3-50.3c-3.4-1-6.9-2.8-10.3-2.8c-110.4-0.2-220.8-0.2-331.2,0C6237.6,1190.3,6233.7,1192.5,6229.9,1193.7z
		 M6281.2,1069.9c-2.6,9.3,5.1,5.6,8.1,5.6c78.7,0.2,157.3,0.2,236,0c2.6,0,5.2-2.1,7.8-3.2c-0.1-1.6,0.2-3.4-0.4-4.8
		c-35.7-82.5-71.5-164.9-107.3-247.3c-5.7-13.2-11.5-26.3-18.9-43.2C6363.7,877,6322.5,973.5,6281.2,1069.9z"/>
	<path d="M5559.8,614.6c81.1,9.1,153.3,39.1,217.6,92c-23.9,33.6-47.2,66.5-69.9,98.5c-26.4-15.2-51.5-30-76.9-44.2
		c-28-15.6-59-22.4-90-27.8c-19-3.3-39.1-5.7-57.9-3.1c-41.4,5.7-88.4,21.4-100.1,74.5c-0.2,1.2-0.4,2.3-0.6,3.5
		c0.1,4.9,0.5,9.8,0.3,14.7c-1.6,28.3,10.9,49.1,33.9,64.2c26,17.1,55.6,26.2,84.9,35.2c53.8,16.4,109.9,24.7,161.8,47.4
		c31.4,13.8,61.6,29.7,86.1,54.4c32.9,33.1,49.5,73.1,49.6,119.8c0.6,1.4,1.2,2.8,1.8,4.2c1.3,58.9-13.7,112.4-54.4,156.4
		c-28.1,30.4-63.1,50.9-102.9,62.3c-20.7,5.9-42.2,9-63.3,13.4c-6.9,0.9-13.8,1.9-20.7,2.8c-19.3-0.1-38.6-0.2-57.9-0.3
		c-7-0.8-13.9-1.7-20.9-2.5c-38.6-0.9-74.8-12.2-110.6-25.3c-55.7-20.5-105.3-51.2-151.2-91.8c26.4-31.3,52.6-62.6,79.6-94.6
		c6,4.6,10.6,8.1,15.1,11.8c36.6,30.5,77.2,54.8,122.2,70.1c19.4,6.6,39.9,13.4,61.3,12.2c8,0.9,16,1.8,24,2.8
		c34.6,0,68.8-1.9,100-19.2c23.2-12.9,40.2-30.8,44-58.4c0.5-1.4,1.1-2.7,1.6-4.1c-0.1-9.7-0.1-19.3-0.2-29
		c-0.7-3.2-1.4-6.4-2.1-9.6c-4.6-19.1-17-32.2-33-42.4c-25.9-16.5-54.5-26.2-83.9-33.9c-30.2-7.9-61.2-13.1-90.9-22.6
		c-46.2-14.8-93.2-28.6-133.3-57.9c-41-30.1-66.7-69.1-71-120.7c-0.5-1.4-1.1-2.8-1.6-4.2c-0.1-4.2-0.2-8.4-0.4-12.7
		c-0.2-1.2-0.4-2.4-0.6-3.5c-5.1-90.2,33.1-156.8,110.9-201c29.8-16.9,62.6-25.5,96.4-31.2c27.5-4.6,54.9-1.9,82.4-2.6
		C5545.8,613,5552.8,613.8,5559.8,614.6z"/>
	<path d="M2775.2,1259.2c46.4-4.5,87.6-22.4,124.8-49.6c18.3-13.4,35.4-28.3,52-41.7c28.7,27,57.5,54,86.9,81.6
		c-18.1,21.1-36.5,38.5-56.5,54.2c-39.2,30.7-81.9,54.7-130.8,66.4c-16.9,4-34.2,6.5-51.4,9.5c-8.4,1.4-16.8,2.4-25.2,3.6
		c-25.6,0-51.1,0-76.7,0c-20,0.5-39.2-4.2-58.5-8.8c-57.9-13.9-109.2-40.2-154.3-78.8c-60-51.2-99.5-115.3-119.5-191.3
		c-5.2-19.8-7.2-40.4-10.6-60.6c-0.5-1.4-1.1-2.8-1.6-4.2c-0.4-6.4-0.9-12.9-1.3-19.3c-0.2-1.2-0.4-2.3-0.6-3.5
		c-0.1-11.9-0.1-23.8-0.2-35.6c0.2-1.2,0.4-2.3,0.6-3.5c3.5-53.5,15.2-104.8,38.4-153.5c14.6-30.6,32.8-58.8,54.9-84.3
		c40.5-46.8,89.7-82,147.8-103.8c20.8-7.8,42.7-12.3,64-18.7c14.6-4.4,29.3-6.3,44.5-6.2c11.3-0.8,22.6-1.7,34-2.5
		c2.7,0.1,5.4,0.2,8.1,0.2c12.5,0.8,25,1.5,37.5,2.3c98,7,181.5,45.6,251.5,116c-28.1,32.4-56.1,64.5-84.5,97.3
		c-11.1-9.1-21.3-17.8-31.9-26.2c-29.1-23.1-60.4-42.3-96.3-53.2c-30-9.1-60.5-13-92-12.6c-51,0.7-95.5,18.4-135.7,48.3
		c-40.4,30.1-67.2,70.2-84.1,117.4c-10.9,30.4-16.7,61.7-15.9,94.1c0.3,10.3-0.1,20.7-0.1,31c-0.4,0.4-1.1,0.9-1,1.1
		c0.4,0.8,1,1.6,1.6,2.4c7.4,65.6,31.9,123.2,79.8,169.7c33,32,72.9,52,117.2,61.7c20.7,4.5,42.8,2.7,64.3,3.7
		C2761.2,1260.9,2768.2,1260.1,2775.2,1259.2z"/>
	<path d="M1728.4,759.1c-1.4,30.7-8.8,59.3-28.3,87.1c-12.8-52.3-39.3-93.2-73.4-129.9c-42.9-46.1-93.4-82.5-147.1-114.5
		c-71.5-42.6-146.6-77.6-225.2-105.1c-5.1-1.8-10-4.2-14.9-6.3c0.8-17.5,1.6-34.7,2.3-51.9c-0.2-1.2-0.4-2.3-0.6-3.5
		c-4.4-52.7-17.3-103.5-33.1-153.7c-26-82.4-59.2-161.9-95.6-240.1c-1-2.2-1.9-4.5-4.3-10.3c16.5,10.4,29.8,18.5,42.8,27
		c73.2,47.8,145.1,97.5,213.5,152.1c47.6,37.9,93.6,77.5,137.3,119.9c47.3,45.9,91.4,94.4,129.7,148c32.3,45.2,60.2,93,78.4,145.8
		c9.9,28.7,18.3,57.9,18.5,88.7c0.5,1.3,1,2.7,1.5,4c-0.1,12.9-0.3,25.8-0.4,38.8C1729.2,756.5,1728.8,757.8,1728.4,759.1z"/>
	<path d="M7210.1,624.7c0.2,4.9,0.7,9.7,0.7,14.6c0,239.7,0,479.4,0,719.1c0,4.9-0.4,9.7-0.6,14.6c-43.5,0-87.1,0-130.6,0
		c-0.2-4.9-0.6-9.7-0.6-14.6c0-239.7,0-479.4,0-719.1c0-4.9,0.5-9.7,0.7-14.6C7123.2,624.7,7166.6,624.7,7210.1,624.7z"/>
	<path d="M793.6,640.5c-0.9-34.6-10.4-67.4-21-99.9c-20.8-63.7-50.1-123.6-83.5-181.5c-3.7-6.4-7.3-12.8-9.3-20.8
		c4.4,2.7,8.9,5.2,13.2,8c81.5,54,162.8,108.2,244.4,162c8.6,5.7,14.4,12.5,18.4,21.8c25,58,42.2,118.5,57,179.7
		c6.2,25.7,12.7,51.4,19.8,80c-14.2-5.3-26.1-9.6-38-14.1c-62.8-23.8-125.6-47.6-188.4-71.5c-6.3-2.4-14.8-3.1-12.5-13.6
		c0.5-1.4,1.1-2.7,1.6-4.1c-0.1-14-0.1-28-0.2-42C794.6,643.2,794.1,641.9,793.6,640.5z"/>
	<path d="M387.5,889.3c1.3-46.9-11-91.1-27.9-134.2c-19.5-49.8-45.7-95.9-76.5-139.5c-3-4.2-5.5-8.6-6.9-14.6
		c22.2,12.2,44.4,24.3,66.6,36.5c58.5,32.1,116.9,64.3,175.5,96.2c6.4,3.5,11.2,7.2,13.9,14.6c26.4,71.2,50.8,143,67.4,217.2
		c0.3,1.4,0,3,0,5.9c-71.9-18-143.1-35.8-212.8-53.2c0-9.5,0-17.4,0-25.4C387.1,891.7,387.3,890.5,387.5,889.3z"/>
	<path d="M4700.4,624.3c-36,0.1-71.9,0.4-107.9,0.4c-79.5,0.1-159.1,0.2-238.6,0.3c-0.2-0.9-0.5-1.7-0.9-2.4
		c2.1-0.4,4.2-1.1,6.3-1.1c113.4,0,226.8,0.2,340.2,0.3C4699.8,622.6,4700.1,623.4,4700.4,624.3z"/>
	<path d="M593.9,1602.2c-1.7,4.7-3.3,9.4-5.6,15.9c-2-10.1-2-10.1,2-19.6C591.5,1599.8,592.7,1601,593.9,1602.2z"/>
	<path d="M1430.3,1539.6c8.1-0.9,16.2-1.7,24.3-2.6C1446.5,1537.9,1438.4,1538.7,1430.3,1539.6z"/>
	<path d="M5520.6,1265c-8-0.9-16-1.8-24-2.8C5504.6,1263.2,5512.6,1264.1,5520.6,1265z"/>
	<path d="M1394.3,1542.8c6.9-0.9,13.8-1.9,20.7-2.8C1408.1,1541,1401.2,1541.9,1394.3,1542.8z"/>
	<path d="M1615.9,1537c7,0.8,14,1.7,21,2.5C1629.9,1538.7,1622.9,1537.9,1615.9,1537z"/>
	<path d="M5559,1382.7c6.9-0.9,13.8-1.9,20.7-2.8C5572.9,1380.8,5566,1381.8,5559,1382.7z"/>
	<path d="M5480.2,1379.9c7,0.8,13.9,1.7,20.9,2.5C5494.1,1381.6,5487.2,1380.8,5480.2,1379.9z"/>
	<path d="M5559.8,614.6c-7-0.8-14-1.7-21-2.5C5545.8,613,5552.8,613.8,5559.8,614.6z"/>
	<path d="M5663.8,1144.8c0.7,3.2,1.4,6.4,2.1,9.6C5665.2,1151.2,5664.5,1148,5663.8,1144.8z"/>
	<path d="M2353.7,1039.5c0.5,1.4,1.1,2.8,1.6,4.2C2354.8,1042.3,2354.2,1040.9,2353.7,1039.5z"/>
	<path d="M1148.2,1042.8c-0.5,1.4-1,2.7-1.6,4.1C1147.2,1045.5,1147.7,1044.2,1148.2,1042.8z"/>
	<path d="M692.4,1052.1c0.6,1.4,1.2,2.8,1.7,4.2C693.5,1054.9,693,1053.5,692.4,1052.1z"/>
	<path d="M5249.1,846.8c0.2,1.2,0.4,2.4,0.6,3.5C5249.5,849.2,5249.3,848,5249.1,846.8z"/>
	<path d="M1063.5,1075.9c-0.6-1.4-1.2-2.8-1.8-4.2C1062.4,1073.1,1063,1074.5,1063.5,1075.9z"/>
	<path d="M695.4,1088.7c0.2,1.2,0.4,2.3,0.6,3.5C695.8,1091,695.6,1089.9,695.4,1088.7z"/>
	<path d="M4487,1112.3c0.2,1,0.3,1.9,0.6,2.9c0,0-1.3,0.3-1.3,0.3s-1.3-0.3-1.3-0.3C4485.6,1114.3,4486.3,1113.3,4487,1112.3z"/>
	<path d="M8167.2,834c-0.6-1.4-1.2-2.8-1.8-4.2C8166,831.2,8166.6,832.6,8167.2,834z"/>
	<path d="M7690.7,1112.3c0.2,1,0.3,1.9,0.6,2.9c0,0-1.3,0.3-1.3,0.3s-1.3-0.3-1.3-0.3C7689.3,1114.3,7690,1113.3,7690.7,1112.3z"/>
	<path d="M5382,807.9c0.2-1.2,0.4-2.3,0.6-3.5C5382.4,805.5,5382.2,806.7,5382,807.9z"/>
	<path d="M1728.4,759.1c0.4-1.3,0.8-2.6,1.2-3.9C1729.2,756.5,1728.8,757.8,1728.4,759.1z"/>
	<path d="M620.7,1141.3c-0.2-1.2-0.4-2.4-0.6-3.5C620.4,1138.9,620.5,1140.1,620.7,1141.3z"/>
	<path d="M4046.4,1037.1c0.5-1.4,1.1-2.8,1.6-4.1C4047.4,1034.4,4046.9,1035.7,4046.4,1037.1z"/>
	<path d="M5800.4,1147.8c-0.6-1.4-1.2-2.8-1.8-4.2C5799.2,1145,5799.8,1146.4,5800.4,1147.8z"/>
	<path d="M622.7,1161.3c-0.5-1.4-1.1-2.8-1.6-4.1C621.6,1158.5,622.2,1159.9,622.7,1161.3z"/>
	<path d="M694.9,1160.6c-0.2,1.2-0.4,2.4-0.6,3.5C694.5,1163,694.7,1161.8,694.9,1160.6z"/>
	<path d="M1730,716.4c-0.5-1.3-1-2.7-1.5-4C1729,713.7,1729.5,715.1,1730,716.4z"/>
	<path d="M624.1,1187c-0.2-1.2-0.4-2.3-0.6-3.5C623.7,1184.6,623.9,1185.8,624.1,1187z"/>
	<path d="M5666.1,1183.3c-0.5,1.4-1.1,2.7-1.6,4.1C5665,1186.1,5665.6,1184.7,5666.1,1183.3z"/>
	<path d="M795.2,686.6c-0.5,1.4-1.1,2.7-1.6,4.1C794.2,689.3,794.7,687.9,795.2,686.6z"/>
	<path d="M693.9,1193.1c-0.5,1.4-1.1,2.7-1.6,4.1C692.8,1195.9,693.4,1194.5,693.9,1193.1z"/>
	<path d="M1061.7,1210.3c0.5-1.4,1-2.7,1.6-4.1C1062.7,1207.6,1062.2,1209,1061.7,1210.3z"/>
	<path d="M625.5,1219.7c-0.6-1.4-1.2-2.8-1.8-4.2C624.3,1216.9,624.9,1218.3,625.5,1219.7z"/>
	<path d="M280.2,1242.3c0.2,1.2,0.4,2.3,0.6,3.5C280.6,1244.6,280.4,1243.5,280.2,1242.3z"/>
	<path d="M1058.5,1262.6c0.5-1.4,1.1-2.8,1.6-4.1C1059.5,1259.9,1059,1261.2,1058.5,1262.6z"/>
	<path d="M2492.9,1026.7c-0.5-0.8-1.1-1.5-1.6-2.4c-0.1-0.2,0.6-0.7,1-1.1c0.3,0.7,0.6,1.5,0.8,2.2
		C2493.2,1025.9,2493,1026.3,2492.9,1026.7z"/>
	<path d="M2351.8,1016.7c0.2,1.2,0.4,2.3,0.6,3.5c-0.5-0.8-1.2-1.5-1.6-2.4C2350.7,1017.6,2351.4,1017.1,2351.8,1016.7z"/>
	<path d="M4048.3,1007.3c0.2-1.2,0.4-2.4,0.6-3.6C4048.7,1004.9,4048.5,1006.1,4048.3,1007.3z"/>
	<path d="M1057.1,1281.8c0.2-1.2,0.4-2.4,0.6-3.6C1057.5,1279.4,1057.3,1280.6,1057.1,1281.8z"/>
	<path d="M281.2,1291.2c0.5,1.4,1.1,2.7,1.6,4.1C282.2,1293.9,281.7,1292.6,281.2,1291.2z"/>
	<path d="M1055.2,1298.6c0.5-1.4,1.1-2.8,1.6-4.1C1056.2,1295.8,1055.7,1297.2,1055.2,1298.6z"/>
	<path d="M282.7,1303.7c-0.6,1.4-1.2,2.8-1.8,4.2C281.5,1306.5,282.1,1305.1,282.7,1303.7z"/>
	<path d="M623.6,1337.8c0.5-1.4,1-2.7,1.6-4.1C624.7,1335.1,624.2,1336.4,623.6,1337.8z"/>
	<path d="M279.4,1356.7c-0.2-0.8-0.5-1.6-0.6-2.4c0-0.2,0.7-0.5,1.1-0.8c0,0,1.1-0.2,1.1-0.2c-0.2,1.3-0.4,2.5-0.6,3.8L279.4,1356.7
		z"/>
	<path d="M623.3,1369.9c0.2-1.2,0.4-2.3,0.6-3.5c0.2,0.9,0.6,1.7,0.7,2.6C624.6,1369.3,623.8,1369.6,623.3,1369.9z"/>
	<path d="M4351.1,1369.6c0.7,0.9,1.5,1.9,2.2,2.8C4352.6,1371.5,4351.9,1370.6,4351.1,1369.6z"/>
	<path d="M7554.8,1369.6c0.7,0.9,1.5,1.9,2.2,2.8C7556.3,1371.5,7555.5,1370.6,7554.8,1369.6z"/>
	<path d="M793.6,640.5c0.5,1.3,1,2.7,1.5,4C794.6,643.2,794.1,641.9,793.6,640.5z"/>
	<path d="M1149.2,993.9c-0.2,1.2-0.4,2.3-0.6,3.5C1148.8,996.3,1149,995.1,1149.2,993.9z"/>
	<path d="M7556.6,622.6c0.4,0.8,0.7,1.6,0.9,2.5c0,0-1.3,0.4-1.3,0.4l-1.3-0.3C7555.5,624.2,7556.1,623.4,7556.6,622.6z"/>
	<path d="M5250.1,863c0.5,1.4,1.1,2.8,1.6,4.2C5251.1,865.8,5250.6,864.4,5250.1,863z"/>
	<path d="M4353,622.6c0.4,0.8,0.8,1.6,0.9,2.4c0,0-1.3,0.4-1.3,0.4l-1.3-0.3C4351.8,624.2,4352.4,623.4,4353,622.6z"/>
	<path d="M4963.6,876.6c0.2-1.2,0.4-2.4,0.6-3.6C4964,874.2,4963.8,875.4,4963.6,876.6z"/>
	<path d="M2352.2,977.6c-0.2,1.2-0.4,2.3-0.6,3.5C2351.8,979.9,2352,978.8,2352.2,977.6z"/>
	<path d="M278.7,1376.1c-0.5,1.4-1.1,2.7-1.6,4.1C277.7,1378.9,278.2,1377.5,278.7,1376.1z"/>
	<path d="M2019.9,1379.8c-0.2-1.2-0.4-2.3-0.6-3.5C2019.5,1377.5,2019.7,1378.6,2019.9,1379.8z"/>
	<path d="M4048.2,961.5c-0.6-1.4-1.2-2.8-1.8-4.2C4047,958.7,4047.6,960.1,4048.2,961.5z"/>
	<path d="M3267.4,957.5c-0.5,1.3-1,2.7-1.5,4C3266.4,960.2,3266.9,958.9,3267.4,957.5z"/>
	<path d="M3268.1,945.4c-0.1,1-0.3,2-0.4,3c-0.2-0.8-0.5-1.5-0.6-2.3C3267,945.9,3267.7,945.7,3268.1,945.4z"/>
	<path d="M1147.4,918.6c0.5,1.4,1.1,2.8,1.6,4.1C1148.5,921.4,1148,920,1147.4,918.6z"/>
	<path d="M620.4,1393.4c0.5-1.4,1.1-2.8,1.6-4.1C621.5,1390.6,620.9,1392,620.4,1393.4z"/>
	<path d="M1241.3,435.1c0.2,1.2,0.4,2.3,0.6,3.5C1241.7,437.4,1241.5,436.2,1241.3,435.1z"/>
	<path d="M4961.7,896.6c0.5-1.4,1.1-2.8,1.6-4.1C4962.7,893.8,4962.2,895.2,4961.7,896.6z"/>
	<path d="M8165.3,893.3c0.5-1.4,1-2.7,1.6-4.1C8166.3,890.6,8165.8,892,8165.3,893.3z"/>
	<path d="M387.5,889.3c-0.2,1.2-0.4,2.3-0.6,3.5C387.1,891.7,387.3,890.5,387.5,889.3z"/>
	<path d="M280.4,1357c0.2-1.3,0.4-2.5,0.6-3.8c0.2,0.9,0.4,1.8,0.4,2.7C281.5,1356.3,280.8,1356.6,280.4,1357z"/>
	<path d="M4827.7,883.5c0.5-1.4,1.1-2.7,1.6-4.1C4828.7,880.8,4828.2,882.1,4827.7,883.5z"/>
	<path d="M4829.5,857c-0.6-1.4-1.2-2.8-1.8-4.2C4828.3,854.1,4828.9,855.5,4829.5,857z"/>
	<path d="M3672.8,1261.8c6.9-0.9,13.8-1.8,20.7-2.8C3686.6,1259.9,3679.7,1260.8,3672.8,1261.8z"/>
	<path d="M3623.4,1259c6.9,0.9,13.8,1.8,20.7,2.8C3637.2,1260.8,3630.3,1259.9,3623.4,1259z"/>
	<path d="M3404.4,1020c0.2,1.1,0.4,2.3,0.6,3.4c-0.5-0.8-1.2-1.5-1.6-2.4C3403.4,1020.9,3404.1,1020.4,3404.4,1020z"/>
</g>
</svg>
