<?xml version="1.0" encoding="utf-8"?>
<!-- Generator: Adobe Illustrator 27.7.0, SVG Export Plug-In . SVG Version: 6.00 Build 0)  -->
<svg version="1.1" id="Capa_1" xmlns="http://www.w3.org/2000/svg" xmlns:xlink="http://www.w3.org/1999/xlink" x="0px" y="0px"
	 viewBox="0 0 8192 3472.3" style="enable-background:new 0 0 8192 3472.3;" xml:space="preserve">
<style type="text/css">
	.st0{fill:#95A1D1;}
</style>
<path class="st0" d="M1884.4-222.1c-0.1-1.5-0.3-2.9-0.4-4.4c0.4-0.1,0.8-0.3,1.2-0.3c0.6,1.5,1.3,3,1.9,4.5
	C1886.2-222.3,1885.3-222.1,1884.4-222.1z"/>
<g>
	<rect x="37.5" y="73.4" width="642.1" height="642.1"/>
	<path d="M663,3414.8V1104.6H54.5v2310H663V3414.8z M4696.9,3438.1v-566.3c-89.7-0.6-163.6-5.3-220.1-14.1
		c-62.8-9.9-110.9-31.3-142.8-63.4c-32.1-32.1-53.4-78.5-63.4-138c-9.5-56.9-14.3-132.1-14.3-223.1v-808h440.6v-520.3h-440.6v-900
		h-608.5v2233.3c0,188.4,16.4,348.5,48.7,476.2c31.9,126.2,86.5,229.2,162.1,306.4c75.6,77.1,175.6,133.2,297.2,166.6
		c122.7,33.8,278.9,51,464.2,51h76.9L4696.9,3438.1L4696.9,3438.1z M8184.9,3414.8V26.5h-608.5v3388.3H8184.9z M3061.1,1332.1
		c-168.5-182.1-406.8-274.3-708-274.3c-145.3,0-279.4,30-399.3,89c-119.7,59-221.4,142-302.4,246.4l-33.2,42.8l-0.2-38.4v-292.8
		h-600.3v2310h604.9V2184l0.6,85.3c0-14.1,0.2-27.9,0.6-41.6c6.3-215.9,60.1-376.8,160.5-479.1c107.1-109,236.9-164.2,386.2-164.2
		c175.6,0,309.6,53.8,398.4,159.8c86.9,104,131.3,252.9,132.3,442.8l0,0v4.8c0,0.4,0,0.8,0,1.1l0,0v1221.8h614.3V2103.5
		C3315.5,1774.2,3230,1514.6,3061.1,1332.1z M7259.1,2255c0-165.5-29.6-322.8-87.8-467.1c-58.2-144.1-140.7-272.4-245.1-381.4
		c-104.2-108.6-230.8-194.9-376.4-256.4c-145.6-61.3-308.3-92.4-483.3-92.4c-165.5,0-323.4,31.9-469,94.7
		c-145.8,63-274.1,149.3-381.6,256.5c-107.5,107.5-193.7,235.7-256.5,381.6c-62.8,145.6-94.7,303.3-94.7,469.2
		s30.4,323.7,90.1,469.4c59.9,145.8,143.9,274.1,249.5,381.4c105.7,107.3,235.5,193.6,386,256.5c150.4,62.8,317.1,94.7,495.1,94.7
		c514.8,0,836.1-234.2,1027.7-453.3l-437.9-333.9c-92.4,109.6-311.5,258.1-585.1,258.1c-171.6,0-313-39.7-420.1-118.2
		c-107.3-78.5-181.1-186.3-219.5-320.7l-6.1-21.4h1814.9v-217.4L7259.1,2255L7259.1,2255z M5449.4,2043.1
		c-0.2-169.1,194.1-464.4,612.7-464.8c418.6,0,613.1,295.1,613.1,464.2L5449.4,2043.1z"/>
</g>
</svg>
