<?xml version="1.0" encoding="utf-8"?>
<!-- Generator: Adobe Illustrator 27.7.0, SVG Export Plug-In . SVG Version: 6.00 Build 0)  -->
<svg version="1.1" id="Capa_1" xmlns="http://www.w3.org/2000/svg" xmlns:xlink="http://www.w3.org/1999/xlink" x="0px" y="0px"
	 viewBox="0 0 8192 2099.9" style="enable-background:new 0 0 8192 2099.9;" xml:space="preserve">
<style type="text/css">
	.st0{fill:#95A1D1;}
	.st1{fill:#141315;}
	.st2{fill:#020203;}
</style>
<path class="st0" d="M1884.4-1167.8c-0.1-1.5-0.3-2.9-0.4-4.4c0.4-0.1,0.8-0.3,1.2-0.3c0.6,1.5,1.3,3,1.9,4.5
	C1886.2-1168,1885.3-1167.8,1884.4-1167.8z"/>
<path class="st1" d="M1508.1,2888.6c-0.6-0.7-1.1-1.4-1.7-2.1C1506.9,2887.2,1507.5,2887.8,1508.1,2888.6z"/>
<g>
	<path class="st2" d="M7249.3,10.6c0,141.4,0,281.5,0,422.2c-195.3,6-357,80.7-476.1,237.5c-85.3,112.2-123.6,240.4-117.6,381.2
		c6.6,158.7,68.5,293.5,182.2,403.7c114,110.3,251.9,164.7,411.2,167.6c0,140.2,0,280.5,0,421c-249.3,9.9-610.7-108.7-838.3-432.8
		C6187,1292.4,6166,877.7,6351.3,541.3c93.1-168.9,223.9-301.4,391.4-396.9C6899.1,55.2,7068,11.3,7249.3,10.6z"/>
	<path class="st2" d="M7263.2,845.3c304.3,0,607.9,0,912.3,0c0,302.1,0,604.4,0,907.3c-139.1,0-278.1,0-418.1,0
		c0-163.8,0-327.5,0-492.6c-165.2,0-329.3,0-494.1,0C7263.2,1121.3,7263.2,984,7263.2,845.3z"/>
	<g>
		<path class="st2" d="M32.4,1600.9c68.1,0,136.2,0,204.8,0c0-396.9,0-792.1,0-1188c-68.6,0-136.7,0-204.8,0
			C32.4,808.8,32.4,1204.8,32.4,1600.9z"/>
		<path class="st2" d="M5661.3,1074.6c0-37.1-4.4-73.3-15.1-108.6c-26.2-87.1-78.5-153.6-160.6-194.8c-40.6-20.4-84-29.7-129.3-33.6
			c-39-3.4-77.5-2.1-115.3,6c-64.2,13.7-120.1,43.6-164.9,92.3c-1-0.9-2.1-1.7-3.1-2.6c-0.1-4.2-0.4-8.5-0.4-12.7
			c0-133.2,0-266.4,0-399.7c0-4.1,0-8.2,0-12.5c-68.9,0-136.6,0-205.2,0c0,4.2,0,8,0,11.7c0,387.4,0,774.6,0,1162
			c0,3.9,0.2,7.7,0.4,11.6c0.8,0.6,1.5,1.2,2.1,1.9c66.7,0,133.3,0,200.1,0c0.8-0.6,1.4-1.2,2.1-1.9c0.1-4.2,0.4-8.5,0.4-12.7
			c0-144.9,0.1-289.8-0.1-434.7c0-25.1,2.2-49.7,9.4-73.8c16.9-57.1,52.4-97.1,108.8-118.1c40.9-15.1,82.5-16.4,125.1-9.4
			c60.1,9.9,102.1,42.2,124.6,98.8c13.4,33.6,17,69,17,104.8c0,144.4,0,289,0,433.5c0,4.4,0,8.9,0,13c69.6,0,137.2,0,205.4,0
			c0.1-2.5,0.4-4.4,0.4-6.2C5662.4,1417.6,5661.4,1246,5661.3,1074.6z"/>
		<path class="st2" d="M1317.3,1321.2c46.2,135.8,137.5,227.7,272.5,275.8c46.4,16.5,94.1,26.4,143.6,24.7
			c22.2-0.7,44.2-3.4,66.5-4.5c34.6-1.6,67.5-11,99.5-23.1c125.7-47.4,213.4-132.8,260.8-259.5c16.6-44.5,24.6-90.3,26.4-137.1
			c1.1-29.1-3.2-58.6-6.5-87.8c-6-53.6-27.2-101.6-56.1-146.7c-1.7-2.9-3.5-5.7-5.7-9.2c19.6-7.7,38.2-15,56.6-22.9
			c3.4-1.5,7.7-5.9,7.9-8.9c0.3-52.7,0-105.3-0.2-158.1c-0.8-0.6-1.5-1.2-2.4-1.9c-93.5-0.1-186.9-0.2-280.4-0.4
			c-4.5,0-9.5-0.1-13.5-1.9c-35.4-15.5-73-21.1-111-23.2c-39.2-2.2-78.3-0.9-117.2,6.7c-46.2,9-90.2,23.9-131.6,46.2
			c-96.5,52.2-163.9,129.8-202.9,232.3c-15,39.5-23.7,80.6-27.2,122.3c-2.2,27.9,0.2,56.2,1.9,84.3
			C1300.2,1260.1,1307.1,1291.1,1317.3,1321.2z M1505.5,1161.7c5.2-113.8,100.7-227.9,239.5-223.4c141.2-3.6,232,106.7,239.8,214.3
			c5.5,76.5-15.9,143.7-71,198.4c-40.4,40.1-88.8,63.5-145.8,68.7c-74.5,6.7-139.1-15.4-192.1-68
			C1523.6,1299.6,1502.1,1234.8,1505.5,1161.7z"/>
		<path class="st2" d="M3274,1250.8c159.7,0,319.5,0,479.2-0.1c5.4,0,10.7-0.5,16.2-0.6c46.4,0,92.7,0,140.3,0c0-4,0.1-7.7,0-11.5
			c-1.7-36-3.4-72.1-5.5-108.1c-2.7-46.9-17-91-33.6-134.5c-0.4-1.1-0.6-2.2-1-3.4C3799.4,833.7,3677,748.4,3504,736.2
			c-47.4-3.4-94.3,1.7-140.3,13.9c-87,23.1-160.6,67.7-219.2,136.5c-44.4,52.1-73.7,111.7-90.6,177.8c-8.9,35-13.9,70.3-14.7,106.2
			c-0.6,23.2,2.5,46.6,4.2,70c2.7,37.4,12.1,73.3,25.2,108.3c44.6,118.6,127.7,197.4,247.2,238.5c37.7,13,76.6,22.1,116.2,24.4
			c31.9,1.9,64.1,0.9,96-2.2c34-3.4,68.2-8.5,101.2-17.1c53.1-14,102.7-37.2,148.6-67.9c30-20,58-42.5,82-66.6
			c-48.4-48.4-96.1-96.2-143.8-143.9c-62.4,59.6-132.1,104.8-224.3,106.5c-27.6,0.5-54.4-1.2-79.7-9
			c-76.5-23.4-125.8-75.5-151.4-150.6c-1-3-0.1-6.5-0.1-10C3265.5,1250.8,3269.8,1250.8,3274,1250.8z M3257.5,1093.6
			c-0.8-0.6-1.4-1.2-2.1-1.9c20.6-74.5,63.4-129.5,138.2-155.8c36.5-12.9,74-13.4,112.2-9.5c59.6,5.9,107.5,31.7,143.6,79.2
			c18.9,24.7,31.7,58.6,36.5,87.7c-2.6,0.2-5.1,0.5-7.6,0.6c-138.3,0-276.5,0-414.9,0C3261.4,1093.8,3259.4,1093.6,3257.5,1093.6z"
			/>
		<path class="st2" d="M1189.6,1024c-19.4-55-49.1-104.2-89-146.8c-91.5-98.2-206.3-141.2-339-142.8c-19.4,2-38.9,3.2-58.1,6.2
			c-19.5,3-39.1,6.5-58,11.9c-190.3,53.1-302.9,207.8-319.3,386.1c-3.2,34.9,1.1,70.6,4.4,105.7c3.7,40.5,16.6,79,33.5,115.8
			c50.6,110.7,132.8,188.2,246.3,232.7c40.4,15.9,82.5,25.5,125.5,28.2c30.9,2,62.1-2.7,93.2-3.9c35.7-1.2,69.6-11.1,102.3-23.7
			c128.3-49.2,216.4-138.3,262-268.4c14.1-40.2,21.1-82.2,22.9-124.6c1.1-25.5-2.5-51.2-4-77C1210.2,1089.2,1201,1056.2,1189.6,1024
			z M793.6,1420.2c-75,5.1-139.9-15.7-192.9-69c-52-52.1-74-116.8-70-189.6c6.5-115.2,94-214,215-223.3
			c177.8-13.6,270.8,125,264,238.2C1014.1,1320.4,901.1,1412.8,793.6,1420.2z"/>
		<path class="st2" d="M2899.3,731.3c0-29.5,0-58.9,0-88.3c0-21.7,0-43.4,0-65.1c0-24.2,0-48.5,0-73.5c-61.1,0-121.5,0-181.8,0
			c-7.5,0-15,0-22.6,0c0,46.2,0,91.2,0,136.3c0,38,0,76,0,114c0.1,5-1.2,7.4-7.2,7.2c-16.6-0.5-33.4-0.1-50-0.1
			c-17.2,0-34.6,0-52.2,0c0,61.4,0,121.2,0,181.2c0.6,0.6,1.2,1.4,1.9,2c35.5,0,71,0,107.5,0c0,217.9,0,434.1,0,650.6
			c68.6,0,136.3,0,205.1,0c0-216.8,0-433.1,0-650.5c40,0,78.8,0,117.2,0c0-61.9,0-122.3,0-183.9c-39.4,0-78,0-117.8,0
			C2899.3,750.6,2899.3,741,2899.3,731.3z"/>
		<path class="st2" d="M2479.9,763.9c-0.6-0.6-1.4-1.2-2-1.9c-66.7,0-133.3,0-200.1,0c-0.8,0.6-1.5,1.2-2.2,1.9
			c-0.1,2.7-0.5,5.4-0.5,8.1c0,272.7,0,545.3,0,818c0,3.4,0.5,6.6,0.6,9.9c68.6,0,136.2,0,204.4,0c0-4.1,0-7.5,0-11
			c0-271.9,0-543.7,0-815.6C2480.3,770.1,2480,766.9,2479.9,763.9z"/>
		<path class="st2" d="M4602.7,1343.7c-53,46.9-113.3,76.8-185.6,77.8c-22.7,0.4-45.1-3.6-67.1-10.9c-68-22.1-115-66.5-141.9-132.2
			c-6-14.6-10.1-30.1-15.1-45.2c0-3.5,0.1-7-0.1-10.4c-1.5-22.9-5.6-45.9-4-68.4c1.6-22.1,7.4-44.4,14.1-65.6
			c10.6-33.2,31.6-60.5,55.7-85.3c0.6-0.4,1.4-0.6,2-1.1c54.4-49.9,119.5-66.2,191.1-59.4c49.1,4.7,92.7,24.9,130.7,56.1
			c18.7,15.5,36,32.7,52.5,48c47.4-47.2,95.2-95,143.3-142.9c-50.9-64-115.6-110.6-193.9-137.8c-38-13.2-77.2-20.5-117.5-23.6
			c-45.4-3.5-90.5-3.6-135.3,5.4c-70.2,14.1-134.5,41.6-190.9,86.2c-47.4,37.4-86.1,82.1-113.3,136.5c-8.7,19.5-18.6,38.5-26.1,58.5
			c-19,51-26.9,104.1-27.1,158.3c0,9.9,1.1,19.7,2.5,29.6c2.6,18.6,5.9,37.2,8.7,55.9c7.7,26.1,13.5,52.9,23.5,78.1
			c30.9,77.5,81.5,139.9,149.3,188.3c41.5,29.6,86.7,52,136.1,64.9c28.9,7.5,58.4,13.9,87.8,16.7c24.4,2.4,49.2-1,73.8-1.6
			c36.5-1,71.7-9.1,106.3-20.1c53.2-17,102.2-42.2,145.9-76.8c25.4-20,48.5-42.9,72.1-64.1c-50-50-97.6-97.6-145.3-145.3
			C4624.6,1323.1,4614,1333.7,4602.7,1343.7z"/>
		<path class="st2" d="M1993.5,1652.3c-7.4,0-8.9,3-9,9.7c-0.4,36-9.6,69.9-26,101.7c-26.6,51.7-67.9,88-120.5,111.8
			c-24,5.4-47.9,13.4-72.1,15.5c-37,3.4-74.1,0.4-109.2-14c-26.9-10.2-51.6-24.4-73-43.6c-30.1-27-51.5-60.4-64-98.3
			c-8.6-26.2-12.4-54.2-18.4-82.2c-66.4,0-135.5,0-206.3,0c1.1,16.2,0.7,32.1,3.5,47.5c5.4,31,10.5,62.2,19.2,92.2
			c11.4,38.7,27.9,75.5,52.5,108.1c17.1,20.9,34.2,41.7,51.4,62.7c18.5,15.6,37.1,31.4,55.6,47c19.4,11.6,38.9,23.2,58.2,34.7
			c18.6,7.7,37.2,15.4,55.9,23.1c27.2,6.9,54.4,14,81.7,20.2c11.4,2.6,23.1,3.4,34.7,5c22.5,0,45,0,67.5,0
			c11.7-1.7,23.6-3.6,35.4-5.4c18.6-3.9,37.1-7.9,55.7-11.7c21.7-8.2,43.4-16.4,65.1-24.6c18.6-9.6,37.2-19.1,55.9-28.7
			c25.6-20.6,51.4-41.2,77-61.9c17.9-21.2,37.1-41.5,53.1-64.1c37.4-52.2,58-111.7,68.9-174.4c4-22.7,4.2-46.2,6.2-68.7
			c-2.2-1-3-1.6-3.6-1.6C2123.7,1652.5,2058.6,1652.5,1993.5,1652.3z"/>
		<path class="st2" d="M2383.6,387c-7.4,0.4-14.7,0-22,1.2c-82.8,14.1-129.3,105.1-108.5,176.7c19.6,67,85.7,112.8,161.7,98.3
			c75.2-14.5,135.7-91.1,103.3-176.3C2495.8,427.7,2445.3,387.2,2383.6,387z"/>
	</g>
</g>
</svg>
